<?xml version="1.0" encoding="UTF-8"?>
<svg id="a" xmlns="http://www.w3.org/2000/svg" viewBox="0 0 384 384">
	<style type="text/css">
	path {fill:#686868;}
</style>
<path d="M128.3,384h-4.5l-21.89-2.47c-47.02-8.87-85.56-45-97.66-91.27L.14,267c.32-6.14-.43-12.67,0-18.75,1.82-25.7,13.79-53.87,30.71-73.15,6.73-7.66,22.75-24.53,30.5-30.23,16.28-11.96,41.55-3.99,47.09,15.62,8.18,28.99-24.48,41.83-37.42,63.06-35.81,58.76,30.97,125.2,90.19,88.75,21.32-13.13,37.07-49.6,67.01-34.68,20.96,10.44,20.26,34.67,6.14,50.88-28.63,32.87-61.76,53.19-106.06,55.49Z"/><path d="M257.96,0l19.65,1.71c48.96,7.4,89.65,44.14,102.14,92.04l4.12,23.26c-.3,5.91.4,12.13,0,18-1.83,26.69-13.64,54.58-31.46,74.64-6.43,7.24-28.29,29.99-36.01,32.97-25.11,9.69-49.41-14.07-40.08-39.36,4.37-11.85,21.46-23.85,29.98-33.75,42.93-49.86-4.11-124.1-67.67-105.22-23.88,7.09-31.22,23.6-48.53,37.69-29.69,24.16-69.04-13.24-41.21-45.74C177.63,22.68,211.76,2.22,256.46,0h1.5Z"/><path d="M241.32,109.72c26.04-2.11,42.67,28.19,26.7,49.21l-109.05,109.13c-29.21,20.42-63.64-13.71-42.97-42.99l108.23-108.45c4.67-3.76,11.1-6.41,17.09-6.89Z"/></svg>